<?xml version="1.0" standalone="no"?><!DOCTYPE svg PUBLIC "-//W3C//DTD SVG 1.1//EN" "http://www.w3.org/Graphics/SVG/1.1/DTD/svg11.dtd"><svg t="1555412880500" class="icon" style="" viewBox="0 0 1024 1024" version="1.1" xmlns="http://www.w3.org/2000/svg" p-id="13561" xmlns:xlink="http://www.w3.org/1999/xlink" width="200" height="200"><defs><style type="text/css"></style></defs><path d="M512 490.666667a199.68 199.68 0 1 1 199.68-199.68A199.893333 199.893333 0 0 1 512 490.666667z m0-357.546667a157.013333 157.013333 0 1 0 157.013333 157.013333A157.226667 157.226667 0 0 0 512 133.12z" p-id="13562" fill="#e6e6e6"></path><path d="M512 786.986667a21.333333 21.333333 0 0 1-21.333333-21.333334V469.333333a21.333333 21.333333 0 0 1 42.666666 0v296.32a21.333333 21.333333 0 0 1-21.333333 21.333334z" p-id="13563" fill="#e6e6e6"></path><path d="M512 873.173333c-32.426667 0-317.013333-2.346667-317.013333-85.333333 0-64 176.64-79.573333 252.586666-83.2a21.333333 21.333333 0 1 1 2.133334 42.666667c-132.266667 6.186667-195.84 28.586667-210.133334 40.533333 18.133333 15.786667 110.08 42.666667 272.426667 42.666667s254.293333-26.24 272.426667-42.666667c-14.293333-11.946667-77.866667-34.346667-210.133334-40.533333A21.333333 21.333333 0 0 1 554.666667 725.333333a21.333333 21.333333 0 0 1 21.333333-20.053333c75.946667 3.626667 252.586667 18.773333 252.586667 83.2 0.426667 82.346667-284.16 84.693333-316.586667 84.693333zM518.186667 344.746667a21.333333 21.333333 0 0 1-21.333334-21.333334v-75.093333a21.333333 21.333333 0 0 1 42.666667 0v75.093333a21.333333 21.333333 0 0 1-21.333333 21.333334z" p-id="13564" fill="#e6e6e6"></path><path d="M555.733333 307.2h-75.306666a21.333333 21.333333 0 0 1 0-42.666667h75.306666a21.333333 21.333333 0 0 1 0 42.666667z" p-id="13565" fill="#e6e6e6"></path></svg>